Coordinates
version=1
nRows=5
nColumns=63
inDegrees=yes

Units are S.I. units (second, meters, Newtons, ...)
If the header above contains a line with 'inDegrees', this indicates whether rotational values are in degrees (yes) or radians (no).

endheader
time	pelvis_tilt	pelvis_list	pelvis_rotation	pelvis_tx	pelvis_ty	pelvis_tz	hip_flexion_r	hip_adduction_r	hip_rotation_r	knee_angle_r	knee_angle_r_beta	ankle_angle_r	subtalar_angle_r	mtp_angle_r	hip_flexion_l	hip_adduction_l	hip_rotation_l	knee_angle_l	knee_angle_l_beta	ankle_angle_l	subtalar_angle_l	mtp_angle_l	L5_S1_Flex_Ext	L5_S1_Lat_Bending	L5_S1_axial_rotation	L4_L5_Flex_Ext	L4_L5_Lat_Bending	L4_L5_axial_rotation	L3_L4_Flex_Ext	L3_L4_Lat_Bending	L3_L4_axial_rotation	L2_L3_Flex_Ext	L2_L3_Lat_Bending	L2_L3_axial_rotation	L1_L2_Flex_Ext	L1_L2_Lat_Bending	L1_L2_axial_rotation	L1_T12_Flex_Ext	L1_T12_Lat_Bending	L1_T12_axial_rotation	Abs_r3	Abs_r2	Abs_r1	Abs_t1	Abs_t2	neck_flexion	neck_bending	neck_rotation	arm_flex_r	arm_add_r	arm_rot_r	elbow_flex_r	pro_sup_r	wrist_flex_r	wrist_dev_r	arm_flex_l	arm_add_l	arm_rot_l	elbow_flex_l	pro_sup_l	wrist_flex_l	wrist_dev_l
      2.37288136	      2.69770714	     -1.88270814	     92.65103476	      0.31758862	      1.04286398	      0.44212547	      0.12021822	     -3.23787800	     -7.20743571	      9.21954564	      0.16091143	     30.32311824	      7.30602969	      0.00000000	      0.45044790	      2.62787258	      8.89483513	      6.83971416	      0.11937553	     26.33088618	    -11.24488337	      0.00000000	     -0.09188915	     -0.25341202	     -0.36681495	     -0.17064734	     -0.33703799	     -0.38974089	     -0.15096468	     -0.61614599	     -0.38974089	     -0.10502011	     -0.61614599	     -0.32096309	     -0.08532826	     -0.51675780	     -0.29803715	     -0.05250546	     -0.39253522	     -0.27511122	     -0.65635501	     -2.86664749	     -2.04011473	      0.00000000	      0.00000000	     24.49643722	      3.99034290	     -4.98288357	      6.53723626	    -11.85561660	    101.75303545	     13.52208215	     14.18081706	     -5.60615732	    -14.89056236	     -2.31769529	    -18.42120036	     58.58959823	     19.33915231	     83.88902094	    -20.36747522	      0.82929275
      2.38983051	      2.96704641	     -1.98660667	     92.54384848	      0.31661634	      1.04315047	      0.44193473	      0.23048484	     -3.08797375	     -7.97217035	      9.25190942	      0.16147628	     30.09779573	      8.27773496	      0.00000000	      0.55555725	      2.41144026	      8.87362324	      6.82241675	      0.11907364	     26.10879569	    -11.34036697	      0.00000000	     -0.06455633	     -0.19879378	     -0.44705840	     -0.11988756	     -0.26439573	     -0.47499955	     -0.10605959	     -0.48334721	     -0.47499955	     -0.07378143	     -0.48334721	     -0.39117610	     -0.05994701	     -0.40538029	     -0.36323495	     -0.03688749	     -0.30793157	     -0.33529380	     -0.46111941	     -2.24879505	     -2.48640471	      0.00000000	      0.00000000	     24.07940760	      4.01771973	     -3.65872207	      6.88654664	    -12.05508873	    104.60746156	     13.34458101	     12.03449429	     -5.21410197	    -14.77960254	      1.16603207	    -12.39422892	    153.66959213	      0.80338556	      8.10853718	    -14.20435781	     -4.34194870
      2.40677966	      2.92260772	     -1.94601979	     92.51368389	      0.31664995	      1.04302507	      0.44186209	      0.17987665	     -3.15084731	     -8.20869921	      9.31534996	      0.16258353	     30.07866536	      8.40756250	      0.00000000	      0.50659913	      2.45970947	      9.03947707	      6.81469948	      0.11893894	     25.95374495	    -11.59882794	      0.00000000	     -0.06336443	     -0.20699844	     -0.44916370	     -0.11767408	     -0.27530793	     -0.47723643	     -0.10410142	     -0.50329601	     -0.47723643	     -0.07241920	     -0.50329601	     -0.39301824	     -0.05884021	     -0.42211122	     -0.36494550	     -0.03620643	     -0.32064059	     -0.33687277	     -0.45260576	     -2.34160778	     -2.49811374	      0.00000000	      0.00000000	     23.60940374	      3.99723790	     -3.28515337	      6.67555106	    -12.21651598	    102.01053814	     13.74781565	     14.25499621	     -5.45295402	    -14.50518380	      1.25917053	    -12.43884544	    156.46382893	      0.73578208	     11.04770835	    -15.01582090	     -2.77856662
      2.42372881	      2.87997082	     -1.95841625	     92.50690828	      0.31661353	      1.04286637	      0.44174713	      0.18745690	     -3.23671513	     -8.61906290	      9.39141421	      0.16391110	     30.11267743	      8.81297965	      0.00000000	      0.48987457	      2.51560279	      9.39687493	      6.76188883	      0.11801722	     25.71418698	    -12.08313337	      0.00000000	     -0.05987566	     -0.21557848	     -0.44073017	     -0.11119508	     -0.28671937	     -0.46827581	     -0.09836971	     -0.52415751	     -0.46827581	     -0.06843189	     -0.52415751	     -0.38563890	     -0.05560053	     -0.43960763	     -0.35809327	     -0.03421295	     -0.33393106	     -0.33054763	     -0.42768582	     -2.43866683	     -2.45120900	      0.00000000	      0.00000000	     23.18583357	      3.85968504	     -3.10277972	      6.59788088	    -12.20469672	    101.47002796	     13.81300663	     14.81321521	     -5.38713786	    -14.49996314	      1.39135884	    -12.45856965	    157.80837001	      0.68943106	     14.48316891	    -15.52373049	     -1.66702077
      2.44067797	      2.89024785	     -2.02423223	     92.48983641	      0.31663634	      1.04262049	      0.44167729	      0.22482037	     -3.23778339	     -8.71501506	      9.38093740	      0.16372824	     30.04471638	      8.84235017	      0.00000000	      0.70178369	      2.38116653	      7.05822445	      7.05530596	      0.12313832	     26.68958284	     -8.68928953	      0.00000000	     -0.05174812	     -0.21831174	     -0.43729392	     -0.09610143	     -0.29035461	     -0.46462479	     -0.08501699	     -0.53080315	     -0.46462479	     -0.05914293	     -0.53080315	     -0.38263218	     -0.04805330	     -0.44518129	     -0.35530131	     -0.02956888	     -0.33816488	     -0.32797044	     -0.36963165	     -2.46958601	     -2.43209759	      0.00000000	      0.00000000	     22.78801072	      3.56313305	     -3.04642229	      6.40894541	    -12.35573488	     99.02108902	     14.27569521	     17.25489617	     -5.95496559	    -14.41828830	      1.37666204	    -12.47432561	    157.31092014	      0.69059497	     17.23379316	    -16.55304987	     -1.33963956
